# xmcd
#
# Track frame offsets: 
#        150
#        17607
#        38354
#        55920
#        77417
#        94864
#        114890
#        138378
#        164077
#        182174
#        205648
#
# Disc length: 3096 seconds
#
# Revision: 0
# Processed by: cddbd v1.5.2PL0 Copyright (c) Steve Scherf et al.
# Submitted via: ExactAudioCopy v1.0b3
#
DISCID=810c160b
DTITLE=Various Artist - Bon Nu Hon Dau
DYEAR=1900
DGENRE=
TTITLE0=Thanh Tuyen, Tuan Vu - Tham vung dia su
TTITLE1=Truc mai - Chuyen dem mua
TTITLE2=Huy Sinh - Tren bon vung chien thuat
TTITLE3=Giao Linh - Nho nhau hoai
TTITLE4=Chau Dinh An - Bon nu hon dau
TTITLE5=hoa tau - LK Lanh tron dem mua, - 
TTITLE6=Giao Linh, Tuan Vu - Phut dau tien
TTITLE7=Truc Mai - Xa cuoc tinh xua
TTITLE8=Giao Linh - Ky niem buon
TTITLE9=Huy Sinh - Tinh phu
TTITLE10=Giao Linh - Yeu mot minh
EXTD=
EXTT0=
EXTT1=
EXTT2=
EXTT3=
EXTT4=
EXTT5=
EXTT6=
EXTT7=
EXTT8=
EXTT9=
EXTT10=
PLAYORDER=
